<svg width="544" height="459" viewBox="0 0 544 459" fill="none" xmlns="http://www.w3.org/2000/svg">
<g clip-path="url(#clip0)">
<path fill-rule="evenodd" clip-rule="evenodd" d="M173.128 118.422C205.777 118.422 232.451 91.8205 232.451 59.1595C232.451 26.6013 205.88 0 173.128 0C140.377 0 113.805 26.4985 113.805 59.1595C113.805 91.8205 140.48 118.422 173.128 118.422ZM0 4.41738H45.3162V117.806H0V4.41738ZM45.3162 4.41738H56.8512C88.2636 4.41738 113.702 29.7861 113.702 61.1119C113.702 92.4377 88.2636 117.806 56.8512 117.806H45.3162V4.41738ZM140.789 139.785L124.516 199.15L108.347 139.785H78.5824L62.3097 199.15L46.0371 139.785H0L40.5786 253.174H78.4794L93.4131 207.264L108.347 253.174H146.248L186.826 139.785H140.789ZM305.472 139.785V253.174H262.216V212.605H235.129V253.071H191.873V139.785H235.129V180.252H262.216V139.785H305.472ZM320.097 139.785V253.174H363.353V139.785H320.097ZM456.457 220.719V253.071H377.978V139.785H421.234V220.719H456.457ZM508.88 182.922V172.138H544V139.785H465.521V253.071H544.103V220.719H508.88V209.934H535.967V182.922H508.88ZM104.742 357.525V389.673H0C0 389.673 49.8478 335.443 56.4392 322.707C61.6918 312.642 56.1302 306.582 51.0837 306.582C45.5221 306.582 40.3726 309.458 40.3726 322.707L0.411965 320.037C0.411965 294.874 18.2295 274.538 51.0837 274.538C82.805 274.538 102.167 291.073 102.167 314.696C102.167 329.383 89.3964 346.227 75.2866 357.525H104.742ZM318.346 389.673V357.525H288.891C303 346.227 315.771 329.383 315.771 314.696C315.771 291.073 296.409 274.538 264.688 274.538C231.833 274.538 214.016 294.874 214.016 320.037L253.977 322.707C253.977 309.458 259.126 306.582 264.688 306.582C269.734 306.582 275.296 312.642 270.043 322.707C263.452 335.443 213.604 389.673 213.604 389.673H318.346ZM159.225 392.343C188.916 392.343 212.986 365.948 212.986 333.389C212.986 300.829 188.916 274.435 159.225 274.435C129.533 274.435 105.463 300.829 105.463 333.389C105.463 365.948 129.533 392.343 159.225 392.343ZM426.487 333.389C426.487 365.948 402.417 392.343 372.725 392.343C343.034 392.343 318.964 365.948 318.964 333.389C318.964 300.829 343.034 274.435 372.725 274.435C402.417 274.435 426.487 300.829 426.487 333.389ZM18.5384 432.81L17.4055 439.486H21.4222V442.567H16.9936L15.9636 448.627H12.256L13.2859 442.567H7.72435L6.69443 448.627H3.08974L4.11965 442.567H0V439.486H4.53162L5.66452 432.81H1.85384V429.729H6.17948L7.31238 423.053H11.0201L9.88716 429.729H15.3457L16.4786 423.053H20.1863L19.0534 429.729H23.173V432.81H18.5384ZM13.6978 439.486L14.8307 432.81H9.37221L8.2393 439.486H13.6978ZM50.1567 448.627V423.053H45.3161V440.719L32.4422 423.053H27.6016V448.627H32.4422V430.962L45.3161 448.627H50.1567ZM72.6088 440.718H58.911C59.6319 443.183 61.4858 445.032 64.5755 445.032C66.5324 445.032 68.6952 444.416 70.24 443.286L71.6819 447.497C71.6819 447.497 69.1071 449.243 64.5755 449.243C57.1602 449.243 53.9674 444.724 53.9674 439.178C53.9674 433.631 57.1602 429.112 63.7516 429.112C69.6221 429.112 72.9178 432.81 72.9178 439.178C72.7805 439.451 72.7347 439.817 72.689 440.182C72.6661 440.364 72.6432 440.547 72.6088 440.718ZM67.5623 437.021C67.5623 435.48 66.2234 433.323 63.2366 433.323C60.7648 433.323 58.911 435.377 58.911 437.021H67.5623ZM78.7884 429.728H73.3298L81.2602 448.627H84.9678L92.8982 429.728H87.4396L83.114 441.334L78.7884 429.728ZM112.364 440.718H98.5627C99.2836 443.183 101.137 445.032 104.227 445.032C106.184 445.032 108.347 444.416 109.892 443.286L111.334 447.497C111.334 447.497 108.759 449.243 104.227 449.243C96.8118 449.243 93.6191 444.724 93.6191 439.178C93.6191 433.631 96.8118 429.112 103.403 429.112C109.274 429.112 112.569 432.81 112.569 439.178C112.467 439.588 112.364 440.205 112.364 440.718ZM107.214 437.021C107.214 435.48 105.875 433.323 102.888 433.323C100.417 433.323 98.5627 435.377 98.5627 437.021H107.214ZM128.327 434.864V429.112C124.928 429.42 121.633 430.858 120.294 433.734V429.728H115.453V448.627H120.294V440.718C120.294 437.329 122.56 435.48 124.619 434.864C125.752 434.556 127.091 434.556 128.327 434.864ZM151.603 441.027C151.603 445.649 148.101 449.243 141.304 449.243C135.006 449.243 131.622 445.773 130.885 445.017L130.883 445.015L130.883 445.015L130.839 444.971L130.82 444.95L130.799 444.93L133.271 440.616C135.537 443.184 138.935 444.313 141.407 444.313C144.806 444.313 146.763 443.081 146.763 441.232C146.763 439.486 144.909 438.562 141.613 438.048C134.301 436.918 131.829 434.248 131.829 430.345C131.829 426.031 135.331 422.334 141.716 422.334C142.849 422.334 146.763 422.437 150.47 425.415L148.41 429.626C147.792 429.113 145.321 427.161 141.613 427.161C139.038 427.161 136.772 427.88 136.772 429.934C136.772 431.68 138.214 432.297 141.922 432.913C147.381 434.043 151.603 435.583 151.603 441.027ZM153.972 434.043H156.444V443.389C156.444 446.881 157.886 449.346 161.387 449.346C163.035 449.346 164.065 449.141 164.992 448.73V444.416C162.52 444.93 161.284 444.827 161.284 441.951V434.043H164.992V429.729H161.284V423.053H156.444V429.729H153.972V434.043ZM187.959 439.178C187.959 444.724 183.427 449.243 177.866 449.243C172.304 449.243 167.773 444.724 167.773 439.178C167.773 433.631 172.304 429.112 177.866 429.112C183.427 429.112 187.959 433.631 187.959 439.178ZM183.016 439.178C183.016 436.302 180.647 434.042 177.866 434.042C175.085 434.042 172.716 436.404 172.716 439.178C172.716 441.951 175.085 444.313 177.866 444.313C180.647 444.313 183.016 442.053 183.016 439.178ZM201.657 449.243C206.91 449.243 211.132 444.724 211.132 439.178C211.132 433.631 206.91 429.112 201.657 429.112C199.391 429.112 197.434 430.037 195.889 431.783V429.728H191.049V458.384H195.889V446.573C197.331 448.319 199.391 449.243 201.657 449.243ZM201.142 434.042C203.923 434.042 206.292 436.302 206.292 439.178C206.292 442.053 203.923 444.313 201.142 444.313C198.361 444.313 195.992 441.951 195.992 439.178C195.992 436.404 198.361 434.042 201.142 434.042ZM230.083 443.8V448.627H214.84V423.053H219.68V443.8H230.083ZM237.601 440.718H251.402C251.451 440.472 251.477 440.202 251.502 439.943L251.502 439.943C251.528 439.661 251.554 439.391 251.608 439.178C251.608 432.81 248.312 429.112 242.442 429.112C235.85 429.112 232.657 433.631 232.657 439.178C232.657 444.724 235.85 449.243 243.265 449.243C247.797 449.243 250.372 447.497 250.372 447.497L248.93 443.286C247.385 444.416 245.222 445.032 243.265 445.032C240.176 445.032 238.322 443.183 237.601 440.718ZM241.927 433.323C244.913 433.323 246.252 435.48 246.252 437.021H237.601C237.601 435.377 239.455 433.323 241.927 433.323ZM274.06 429.728V448.627H269.219V446.572C267.674 448.319 265.717 449.243 263.452 449.243C258.199 449.243 253.977 444.724 253.977 439.178C253.977 433.631 258.199 429.112 263.452 429.112C265.717 429.112 267.777 430.037 269.219 431.783V429.728H274.06ZM269.219 439.178C269.219 436.302 266.85 434.042 264.07 434.042C261.186 434.042 258.92 436.404 258.92 439.178C258.92 441.951 261.289 444.313 264.07 444.313C266.85 444.416 269.219 442.053 269.219 439.178ZM291.568 434.864V429.112C288.067 429.42 284.874 430.858 283.535 433.734V429.728H278.694V448.627H283.535V440.718C283.535 437.329 285.801 435.48 287.861 434.864C288.994 434.556 290.332 434.556 291.568 434.864ZM312.887 437.637V448.627H308.047V438.253C308.047 435.275 306.914 433.939 304.339 433.939C302.073 433.939 300.014 435.377 300.014 438.767V448.524H295.173V429.626H300.014V431.474C301.352 429.934 302.897 429.01 305.781 429.01C310.21 429.112 312.887 431.988 312.887 437.637ZM319.376 420.587C317.419 420.587 315.977 422.128 315.977 423.977C315.977 425.826 317.419 427.366 319.376 427.366C321.333 427.366 322.775 425.826 322.775 423.977C322.775 422.025 321.23 420.587 319.376 420.587ZM321.745 429.728H316.904V448.627H321.745V429.728ZM344.094 437.637V448.627H339.253V438.253C339.253 435.275 338.12 433.939 335.546 433.939C333.28 433.939 331.22 435.377 331.22 438.767V448.524H326.379V429.626H331.22V431.474C332.559 429.934 334.104 429.01 336.988 429.01C341.313 429.112 344.094 431.988 344.094 437.637ZM356.865 459C363.456 459 367.267 454.789 367.267 446.778V429.728H362.323V431.783C360.881 430.037 358.822 429.112 356.556 429.112C351.303 429.112 347.081 433.631 347.081 439.178C347.081 444.724 351.303 449.243 356.556 449.243C358.822 449.243 360.778 448.319 362.323 446.573V448.216C362.323 451.605 360.264 454.07 356.865 454.07C353.569 454.07 350.994 452.53 349.964 451.605L347.699 455.919L347.722 455.937C348.234 456.321 351.803 459 356.865 459ZM357.277 434.042C360.058 434.042 362.426 436.302 362.426 439.178C362.426 442.053 360.058 444.313 357.277 444.313C354.496 444.313 352.127 441.951 352.127 439.178C352.127 436.404 354.496 434.042 357.277 434.042Z" fill="url(#paint0_linear)"/>
</g>
<defs>
<linearGradient id="paint0_linear" x1="-2.11072e-05" y1="-3.9183" x2="226.891" y2="581.866" gradientUnits="userSpaceOnUse">
<stop stop-color="#FF018E"/>
<stop offset="0.515625" stop-color="#FFA17B"/>
<stop offset="1" stop-color="#FFCD1E"/>
</linearGradient>
<clipPath id="clip0">
<rect width="544" height="459" fill="white"/>
</clipPath>
</defs>
</svg>
